<?xml version="1.0" encoding="iso-8859-1"?>
<!-- Uploaded to: SVG Repo, www.svgrepo.com, Generator: SVG Repo Mixer Tools -->
<svg height="800px" width="800px" version="1.1" id="Layer_1" xmlns="http://www.w3.org/2000/svg" xmlns:xlink="http://www.w3.org/1999/xlink" 
	 viewBox="0 0 512 512" xml:space="preserve">
<circle style="fill:#FF675C;" cx="256" cy="305.893" r="106.914"/>
<path style="fill:#5CC4E0;" d="M125.22,386.15c4.621,8.66,7.235,18.544,7.235,29.033c0,34.117-27.655,61.773-61.773,61.773
	S8.91,449.301,8.91,415.183s27.655-61.773,61.773-61.773C94.31,353.411,114.826,366.668,125.22,386.15z"/>
<path style="fill:#439EE8;" d="M89.689,457.949c-34.117,0-61.773-27.655-61.773-61.773c0-12.192,3.546-23.548,9.642-33.123
	C20.341,374.015,8.91,393.258,8.91,415.183c0,34.117,27.655,61.773,61.773,61.773c21.926,0,41.168-11.431,52.13-28.649
	C113.238,454.403,101.881,457.949,89.689,457.949z"/>
<circle style="fill:#FFFFFF;" cx="87.313" cy="398.552" r="16.631"/>
<path style="fill:#5CC4E0;" d="M386.78,386.15c10.394-19.482,30.91-32.739,54.538-32.739c34.117,0,61.773,27.655,61.773,61.773
	s-27.655,61.773-61.773,61.773s-61.773-27.655-61.773-61.773C379.545,404.694,382.159,394.81,386.78,386.15z"/>
<path style="fill:#439EE8;" d="M460.325,457.949c-34.117,0-61.773-27.655-61.773-61.773c0-10.489,2.613-20.373,7.235-29.033
	c0.747-1.401,1.553-2.764,2.401-4.097c-8.975,5.715-16.379,13.678-21.408,23.104c-4.621,8.66-7.235,18.544-7.235,29.033
	c0,34.117,27.655,61.773,61.773,61.773c21.926,0,41.168-11.431,52.13-28.649C483.873,454.403,472.517,457.949,460.325,457.949z"/>
<circle style="fill:#FFFFFF;" cx="457.949" cy="398.552" r="16.631"/>
<circle style="fill:#5CC4E0;" cx="256" cy="96.817" r="61.773"/>
<path style="fill:#439EE8;" d="M275.007,139.582c-34.118,0-61.773-27.655-61.773-61.773c0-12.192,3.546-23.55,9.642-33.123
	c-17.218,10.963-28.649,30.204-28.649,52.13c0,34.118,27.655,61.773,61.773,61.773c21.926,0,41.168-11.432,52.13-28.649
	C298.555,136.036,287.199,139.582,275.007,139.582z"/>
<circle style="fill:#FFFFFF;" cx="272.631" cy="80.186" r="16.631"/>
<circle style="fill:#5CC4E0;" cx="256" cy="305.893" r="61.773"/>
<path style="fill:#439EE8;" d="M275.007,348.659c-34.118,0-61.773-27.655-61.773-61.773c0-12.192,3.546-23.55,9.642-33.123
	c-17.218,10.963-28.649,30.204-28.649,52.13c0,34.117,27.655,61.773,61.773,61.773c21.926,0,41.168-11.431,52.13-28.649
	C298.555,345.113,287.199,348.659,275.007,348.659z"/>
<circle style="fill:#FFFFFF;" cx="272.631" cy="289.262" r="16.631"/>
<path d="M87.313,373.012c-14.083,0-25.541,11.458-25.541,25.541s11.458,25.541,25.541,25.541s25.541-11.458,25.541-25.541
	S101.396,373.012,87.313,373.012z M87.313,406.274c-4.258,0-7.722-3.464-7.722-7.722s3.464-7.722,7.722-7.722
	c4.258,0,7.722,3.464,7.722,7.722S91.571,406.274,87.313,406.274z"/>
<path d="M457.949,373.012c-14.083,0-25.541,11.458-25.541,25.541s11.458,25.541,25.541,25.541s25.541-11.458,25.541-25.541
	S472.032,373.012,457.949,373.012z M457.949,406.274c-4.258,0-7.722-3.464-7.722-7.722s3.464-7.722,7.722-7.722
	s7.722,3.464,7.722,7.722S462.207,406.274,457.949,406.274z"/>
<path d="M298.172,80.186c0-14.083-11.458-25.541-25.541-25.541c-14.083,0-25.541,11.458-25.541,25.541s11.458,25.541,25.541,25.541
	C286.714,105.726,298.172,94.269,298.172,80.186z M264.91,80.186c0-4.258,3.464-7.722,7.722-7.722c4.258,0,7.722,3.464,7.722,7.722
	c0,4.258-3.464,7.722-7.722,7.722C268.374,87.907,264.91,84.443,264.91,80.186z"/>
<path d="M272.631,263.722c-14.083,0-25.541,11.458-25.541,25.541c0,14.083,11.458,25.541,25.541,25.541
	c14.083,0,25.541-11.458,25.541-25.541C298.172,275.179,286.714,263.722,272.631,263.722z M272.631,296.984
	c-4.258,0-7.722-3.464-7.722-7.722s3.464-7.722,7.722-7.722c4.258,0,7.722,3.464,7.722,7.722S276.889,296.984,272.631,296.984z"/>
<path d="M326.682,305.893c0-38.975-31.707-70.682-70.682-70.682s-70.682,31.707-70.682,70.682c0,38.975,31.707,70.682,70.682,70.682
	S326.682,344.868,326.682,305.893z M256,358.756c-29.15,0-52.863-23.714-52.863-52.863c0-29.15,23.714-52.863,52.863-52.863
	s52.863,23.714,52.863,52.863C308.863,335.043,285.15,358.756,256,358.756z"/>
<path d="M441.318,344.501c-23.064,0-44.372,11.158-57.542,29.628l-24.545-14.169c-0.565-0.327-1.154-0.58-1.751-0.77
	c3.616-6.854,6.55-14.07,8.699-21.549c7.838-27.283,5.052-57.548-7.644-83.035c-2.194-4.404-7.542-6.194-11.948-4.002
	c-4.405,2.194-6.196,7.543-4.002,11.948c10.733,21.544,13.09,47.121,6.467,70.17c-5.993,20.863-19.132,39.369-36.995,52.113
	c-10.904,7.779-23.655,13.302-36.877,15.975c-4.823,0.974-7.943,5.675-6.968,10.498c0.855,4.228,4.571,7.147,8.724,7.147
	c0.584,0,1.18-0.058,1.775-0.178c15.658-3.166,30.768-9.713,43.696-18.934c9.986-7.125,18.706-15.791,25.896-25.547
	c0.58,0.613,1.253,1.156,2.021,1.599l25.007,14.435c-3.085,8.051-4.694,16.676-4.694,25.353c0,38.975,31.707,70.682,70.682,70.682
	S512,454.158,512,415.183S480.293,344.501,441.318,344.501z M441.318,468.046c-29.15,0-52.863-23.714-52.863-52.863
	c0-8.666,2.138-17.255,6.186-24.84c9.223-17.284,27.109-28.023,46.678-28.023c29.15,0,52.863,23.714,52.863,52.863
	S470.467,468.046,441.318,468.046z"/>
<path d="M182.396,238.744c2.326,0,4.651-0.906,6.398-2.708c17.245-17.793,43.79-28.109,71.047-27.606
	c25.285,0.47,48.374,10.285,63.345,26.928c3.292,3.658,8.925,3.957,12.583,0.665c3.658-3.291,3.956-8.924,0.665-12.583
	c-17.301-19.233-43.165-30.966-71.523-32.625v-23.896c34.78-4.397,61.773-34.146,61.773-70.101
	c0-38.975-31.707-70.682-70.682-70.682s-70.683,31.707-70.683,70.682c0,35.955,26.992,65.703,61.773,70.101v24.167
	c-27.391,2.464-53.288,14.18-71.092,32.548c-3.425,3.533-3.337,9.173,0.197,12.598C177.925,237.909,180.161,238.744,182.396,238.744
	z M203.137,96.817c0-29.15,23.714-52.863,52.863-52.863s52.863,23.714,52.863,52.863S285.15,149.68,256,149.68
	S203.137,125.966,203.137,96.817z"/>
<path d="M237.462,401.025c-22.755-4.043-43.76-16.188-57.633-33.32c-13.659-16.87-21.15-39.877-21.094-64.784
	c0.032-14.618,3.474-28.272,9.951-39.485c2.461-4.261,1.001-9.71-3.258-12.172c-4.26-2.459-9.71-1.001-12.172,3.258
	c-8.033,13.908-12.3,30.63-12.34,48.358c-0.046,20.46,4.393,39.917,12.703,56.65c-0.287,0.127-0.571,0.27-0.851,0.431
	l-24.545,14.169c-13.169-18.472-34.477-29.631-57.541-29.631C31.707,344.501,0,376.208,0,415.183s31.707,70.682,70.682,70.682
	s70.682-31.707,70.682-70.682c0-8.677-1.608-17.302-4.695-25.355l25.007-14.435c0.378-0.219,0.726-0.467,1.058-0.729
	c1.049,1.447,2.125,2.87,3.244,4.252c16.531,20.418,41.449,34.871,68.364,39.652c0.527,0.094,1.051,0.139,1.569,0.139
	c4.237,0,7.995-3.035,8.761-7.352C245.535,406.511,242.307,401.886,237.462,401.025z M70.682,468.046
	c-29.15,0-52.863-23.714-52.863-52.863s23.714-52.863,52.863-52.863c19.569,0,37.454,10.739,46.678,28.025
	c4.047,7.584,6.186,16.173,6.186,24.839C123.545,444.333,99.832,468.046,70.682,468.046z"/>
</svg>