<?xml version="1.0" encoding="utf-8"?>
<!-- Uploaded to: SVG Repo, www.svgrepo.com, Generator: SVG Repo Mixer Tools -->
<svg width="800px" height="800px" viewBox="0 0 1024 1024" class="icon"  version="1.1" xmlns="http://www.w3.org/2000/svg"><path d="M800 159.328a32 32 0 0 1-32-32H256a32 32 0 0 1-32 32 63.904 63.904 0 0 0-63.872 64v736c0 35.328 28.544 64 63.872 64h576a64 64 0 0 0 64-64v-736a64 64 0 0 0-64-64z" fill="#3AAD73" /><path d="M800 991.328H224a64 64 0 0 1-64-64v32a64 64 0 0 0 64 64h576a64 64 0 0 0 64-64v-32a64 64 0 0 1-64 64z" fill="" /><path d="M864 95.328a32 32 0 0 1-32 32H192a31.872 31.872 0 0 1-31.872-32v-64C160.128 13.664 174.304 0 192 0h640c17.696 0 32 13.664 32 31.328v64z" fill="#434854" /><path d="M512 319.328a224 224 0 1 0 0 448 224 224 0 0 0 0-448z m0 416a192 192 0 0 1 0-384 192 192 0 0 1 0 384z" fill="#FFFFFF" /><path d="M512 543.328m-192 0a192 192 0 1 0 384 0 192 192 0 1 0-384 0Z" fill="#EACA44" /><path d="M768 127.328H256a32 32 0 0 1-32 32h576a32 32 0 0 1-32-32z" fill="" /></svg>